<svg width="34" height="34" viewBox="0 0 34 34" fill="none" xmlns="http://www.w3.org/2000/svg">
<path d="M16.7832 6.38987L17 6.375C17.3851 6.37502 17.7572 6.51449 18.0475 6.76763C18.3377 7.02077 18.5265 7.37045 18.5789 7.752L18.5938 7.96875V15.4062H26.0312C26.4164 15.4063 26.7885 15.5457 27.0787 15.7989C27.369 16.052 27.5577 16.4017 27.6101 16.7832L27.625 17C27.625 17.3851 27.4855 17.7572 27.2324 18.0475C26.9792 18.3377 26.6296 18.5265 26.248 18.5789L26.0312 18.5938H18.5938V26.0312C18.5937 26.4164 18.4543 26.7885 18.2011 27.0787C17.948 27.369 17.5983 27.5577 17.2168 27.6101L17 27.625C16.6149 27.625 16.2428 27.4855 15.9525 27.2324C15.6623 26.9792 15.4735 26.6296 15.4211 26.248L15.4062 26.0312V18.5938H7.96875C7.58362 18.5937 7.21152 18.4543 6.92127 18.2011C6.63102 17.948 6.44225 17.5983 6.38987 17.2168L6.375 17C6.37502 16.6149 6.51449 16.2428 6.76763 15.9525C7.02077 15.6623 7.37045 15.4735 7.752 15.4211L7.96875 15.4062H15.4062V7.96875C15.4063 7.58362 15.5457 7.21152 15.7989 6.92127C16.052 6.63102 16.4017 6.44225 16.7832 6.38987L17 6.375L16.7832 6.38987Z" fill="white"/>
</svg>
