<svg width="34" height="34" viewBox="0 0 34 34" fill="none" xmlns="http://www.w3.org/2000/svg">
<path d="M23.375 10.625C23.375 11.2127 22.9002 11.6875 22.3125 11.6875H11.6875C11.0998 11.6875 10.625 11.2127 10.625 10.625V6.10938H6.10938V27.8906H27.8906V11.3488L23.375 6.8332V10.625ZM17 24.2383C14.3604 24.2383 12.2188 22.0967 12.2188 19.457C12.2188 16.8174 14.3604 14.6758 17 14.6758C19.6396 14.6758 21.7812 16.8174 21.7812 19.457C21.7812 22.0967 19.6396 24.2383 17 24.2383Z" fill="#ECECFF"/>
<path d="M17 14.6758C14.3604 14.6758 12.2188 16.8174 12.2188 19.457C12.2188 22.0967 14.3604 24.2383 17 24.2383C19.6396 24.2383 21.7812 22.0967 21.7812 19.457C21.7812 16.8174 19.6396 14.6758 17 14.6758ZM17 22.1133C15.5324 22.1133 14.3438 20.9246 14.3438 19.457C14.3438 17.9895 15.5324 16.8008 17 16.8008C18.4676 16.8008 19.6562 17.9895 19.6562 19.457C19.6562 20.9246 18.4676 22.1133 17 22.1133Z" fill="#2965FE"/>
<path d="M29.6604 9.73848L24.2615 4.33965C24.2383 4.31641 24.215 4.29648 24.1918 4.27324C24.1885 4.26992 24.1818 4.2666 24.1785 4.26328C24.1553 4.24004 24.1287 4.22012 24.1055 4.2002C23.8898 4.0241 23.6416 3.8921 23.375 3.81172V3.71875H4.78125C4.19355 3.71875 3.71875 4.19355 3.71875 4.78125V29.2188C3.71875 29.8064 4.19355 30.2812 4.78125 30.2812H29.2188C29.8064 30.2812 30.2812 29.8064 30.2812 29.2188V11.2393C30.2812 10.6748 30.0588 10.1369 29.6604 9.73848ZM12.75 6.10938H21.25V9.5625H12.75V6.10938ZM27.8906 27.8906H6.10938V6.10938H10.625V10.625C10.625 11.2127 11.0998 11.6875 11.6875 11.6875H22.3125C22.9002 11.6875 23.375 11.2127 23.375 10.625V6.8332L27.8906 11.3488V27.8906Z" fill="#2965FE"/>
</svg>
